<svg width="159" height="144" viewBox="0 0 159 144" fill="none" xmlns="http://www.w3.org/2000/svg">
<path fill-rule="evenodd" clip-rule="evenodd" d="M112.951 34.2C112.951 52.6739 97.9753 67.65 79.5014 67.65C61.0274 67.65 46.0514 52.6739 46.0514 34.2C46.0514 15.7261 61.0274 0.75 79.5014 0.75C97.9753 0.75 112.951 15.7261 112.951 34.2ZM101.801 34.2C101.801 46.5159 91.8173 56.5 79.5014 56.5C67.1854 56.5 57.2014 46.5159 57.2014 34.2C57.2014 21.884 67.1854 11.9 79.5014 11.9C91.8173 11.9 101.801 21.884 101.801 34.2Z" fill="black"/>
<path d="M79.5014 84.375C43.4067 84.375 12.6531 105.718 0.938232 135.621C3.79205 138.454 6.79833 141.135 9.94369 143.649C18.6671 116.195 46.0331 95.525 79.5014 95.525C112.97 95.525 140.336 116.195 149.059 143.649C152.204 141.135 155.211 138.455 158.065 135.621C146.35 105.718 115.596 84.375 79.5014 84.375Z" fill="black"/>
</svg>
