<svg width="31" height="31" viewBox="0 0 31 31" fill="none" xmlns="http://www.w3.org/2000/svg">
<path d="M11.3333 25.7632C10.8389 25.7632 10.3555 25.9021 9.94441 26.1623C9.53328 26.4226 9.21285 26.7925 9.02363 27.2252C8.83442 27.658 8.78491 28.1342 8.88137 28.5936C8.97783 29.0531 9.21593 29.4751 9.56557 29.8063C9.9152 30.1375 10.3607 30.3631 10.8456 30.4545C11.3306 30.5459 11.8332 30.499 12.29 30.3197C12.7469 30.1405 13.1373 29.8369 13.412 29.4474C13.6867 29.0579 13.8333 28.6 13.8333 28.1316C13.8333 27.5034 13.5699 26.901 13.1011 26.4569C12.6323 26.0127 11.9964 25.7632 11.3333 25.7632ZM28.8333 21.0263H8.83333C8.39131 21.0263 7.96738 20.86 7.65482 20.5639C7.34226 20.2677 7.16667 19.8661 7.16667 19.4474C7.16667 19.0286 7.34226 18.627 7.65482 18.3309C7.96738 18.0348 8.39131 17.8684 8.83333 17.8684H22.9853C24.0711 17.8651 25.1264 17.5286 25.9932 16.9092C26.86 16.2898 27.4916 15.421 27.7933 14.433L30.4357 5.67089C30.5066 5.4359 30.5189 5.18853 30.4718 4.94825C30.4246 4.70797 30.3192 4.48134 30.1639 4.28621C30.0085 4.09107 29.8075 3.93276 29.5766 3.82373C29.3458 3.7147 29.0913 3.65793 28.8333 3.65789H8.39845C8.05343 2.73793 7.4174 1.94112 6.57704 1.37602C5.73668 0.810923 4.73284 0.505022 3.70232 0.5H2.16667C1.72464 0.5 1.30072 0.666353 0.988155 0.962463C0.675595 1.25857 0.5 1.66018 0.5 2.07895C0.5 2.49771 0.675595 2.89932 0.988155 3.19543C1.30072 3.49154 1.72464 3.65789 2.16667 3.65789H3.70232C4.06412 3.65909 4.41578 3.77129 4.70464 3.97768C4.99351 4.18407 5.20403 4.47356 5.30468 4.80279L5.56388 5.66291L5.56428 5.67089L8.29867 14.7375C7.02627 14.8672 5.85479 15.4541 5.02544 16.3775C4.1961 17.3008 3.77202 18.4903 3.84054 19.7009C3.90906 20.9115 4.46496 22.0512 5.39377 22.8853C6.32258 23.7193 7.55359 24.1842 8.83333 24.1842H28.8333C29.2754 24.1842 29.6993 24.0179 30.0118 23.7218C30.3244 23.4256 30.5 23.024 30.5 22.6053C30.5 22.1865 30.3244 21.7849 30.0118 21.4888C29.6993 21.1927 29.2754 21.0263 28.8333 21.0263ZM26.6239 6.81579L24.5885 13.5649C24.488 13.8944 24.2774 14.1841 23.9884 14.3907C23.6993 14.5972 23.3474 14.7094 22.9853 14.7105H11.7573L11.3324 13.3018L9.37737 6.81579H26.6239ZM24.6667 25.7632C24.1722 25.7632 23.6889 25.9021 23.2777 26.1623C22.8666 26.4226 22.5462 26.7925 22.357 27.2252C22.1677 27.658 22.1182 28.1342 22.2147 28.5936C22.3112 29.0531 22.5493 29.4751 22.8989 29.8063C23.2485 30.1375 23.694 30.3631 24.1789 30.4545C24.6639 30.5459 25.1666 30.499 25.6234 30.3197C26.0802 30.1405 26.4706 29.8369 26.7453 29.4474C27.02 29.0579 27.1667 28.6 27.1667 28.1316C27.1667 27.5034 26.9033 26.901 26.4344 26.4569C25.9656 26.0127 25.3297 25.7632 24.6667 25.7632Z" fill="black"/>
</svg>
