<svg width="123" height="123" viewBox="0 0 123 123" fill="none" xmlns="http://www.w3.org/2000/svg">
<circle cx="61" cy="62" r="54" fill="white"/>
<path d="M61.5 5.1252C46.7065 4.97487 32.4586 10.7043 21.8875 21.0543C11.3164 31.4044 5.28726 45.5281 5.125 60.3215C5.182 72.0124 8.94283 83.3846 15.8673 92.8045C22.7918 102.224 32.5236 109.207 43.665 112.75C46.4838 113.263 47.5088 111.571 47.5088 110.085C47.5088 108.599 47.5088 105.319 47.5088 100.706C31.8263 104.038 28.495 93.3264 28.495 93.3264C27.451 89.9639 25.2316 87.0896 22.2425 85.2289C17.1175 81.8464 22.6525 81.8977 22.6525 81.8977C24.424 82.1345 26.1188 82.7693 27.61 83.7546C29.1011 84.7398 30.3498 86.0498 31.2625 87.5864C32.853 90.3443 35.4626 92.3675 38.5298 93.2206C41.597 94.0736 44.8765 93.6884 47.6625 92.1477C47.949 89.3412 49.2199 86.7267 51.25 84.7677C38.745 83.384 25.625 78.669 25.625 57.5027C25.5132 51.9814 27.5532 46.6331 31.3138 42.589C29.6011 37.8487 29.8033 32.6276 31.8775 28.0339C31.8775 28.0339 36.6438 26.5477 47.2525 33.6715C56.4872 31.2106 66.2053 31.2106 75.44 33.6715C86.2025 26.5477 90.815 28.0339 90.815 28.0339C92.8892 32.6276 93.0914 37.8487 91.3788 42.589C95.2266 46.559 97.3773 51.8714 97.375 57.4002C97.375 78.6177 84.1525 83.2815 71.75 84.6652C73.108 85.9837 74.1571 87.5867 74.8217 89.359C75.4863 91.1313 75.75 93.0288 75.5938 94.9152V110.034C75.5938 110.034 76.6188 113.263 79.4375 112.699C90.5473 109.134 100.246 102.149 107.149 92.7429C114.052 83.3364 117.806 71.989 117.875 60.3215C117.713 45.5281 111.684 31.4044 101.113 21.0543C90.5414 10.7043 76.2935 4.97487 61.5 5.1252Z" fill="#231F20"/>
</svg>
