<svg width="61" height="61" viewBox="0 0 61 61" fill="none" xmlns="http://www.w3.org/2000/svg">
<rect width="61" height="61" rx="30.5" fill="#EADDFF"/>
<path fill-rule="evenodd" clip-rule="evenodd" d="M39.6501 24.4C39.6501 29.4534 35.5535 33.55 30.5001 33.55C25.4467 33.55 21.3501 29.4534 21.3501 24.4C21.3501 19.3466 25.4467 15.25 30.5001 15.25C35.5535 15.25 39.6501 19.3466 39.6501 24.4ZM36.6001 24.4C36.6001 27.7689 33.8691 30.5 30.5001 30.5C27.1312 30.5 24.4001 27.7689 24.4001 24.4C24.4001 21.0311 27.1312 18.3 30.5001 18.3C33.8691 18.3 36.6001 21.0311 36.6001 24.4Z" fill="#4F378A"/>
<path d="M30.5001 38.125C20.6267 38.125 12.2143 43.9633 9.00977 52.1429C9.79041 52.918 10.6128 53.6513 11.4731 54.3389C13.8594 46.8292 21.3451 41.175 30.5001 41.175C39.6551 41.175 47.1409 46.8292 49.5271 54.3389C50.3875 53.6513 51.2099 52.9181 51.9905 52.1429C48.786 43.9633 40.3736 38.125 30.5001 38.125Z" fill="#4F378A"/>
</svg>
