<svg width="36" height="36" viewBox="0 0 36 36" fill="none" xmlns="http://www.w3.org/2000/svg">
<path d="M15.818 0.5L13.6359 5.69327C13.1995 5.82419 12.8067 6.04239 12.414 6.2606L7.2207 4.07855L4.07855 7.2207L6.2606 12.414C6.04239 12.8504 5.86783 13.1995 5.69327 13.6359L0.5 15.818V20.182L5.69327 22.3641C5.86783 22.8005 6.04239 23.1496 6.2606 23.586L4.07855 28.7793L7.2207 31.9214L12.414 29.7394C12.8067 29.914 13.1995 30.1322 13.6359 30.3067L15.818 35.5H20.182L22.3641 30.3067C22.7569 30.1322 23.1933 29.9576 23.586 29.7394L28.7793 31.9214L31.9214 28.7793L29.7394 23.586C29.914 23.1933 30.1322 22.7569 30.3067 22.3641L35.5 20.182V15.818L30.3067 13.6359C30.1758 13.2431 29.9576 12.8067 29.7394 12.414L31.9214 7.2207L28.7793 4.07855L23.586 6.2606C23.1933 6.08603 22.7569 5.86783 22.3641 5.69327L20.182 0.5L15.818 0.5ZM18 11.4102C21.6222 11.4102 24.5461 14.3342 24.5461 17.9564C24.5461 21.5786 21.6222 24.5025 18 24.5025C14.3778 24.5025 11.4539 21.5786 11.4539 17.9564C11.4539 14.3342 14.3778 11.4102 18 11.4102Z" fill="black"/>
</svg>
